<svg width="369" height="196" viewBox="0 0 369 196" fill="none" xmlns="http://www.w3.org/2000/svg">
<mask id="path-1-outside-1_129_650" maskUnits="userSpaceOnUse" x="0" y="0" width="299" height="201" fill="black">
<rect fill="white" width="299" height="201"/>
<path d="M180.6 100.48C180.6 120.08 175.56 152.56 153.16 174.68C139.16 188.4 119 198.2 91.84 198.2C64.68 198.2 44.52 188.4 30.52 174.68C8.12 152.56 3.08 120.08 3.08 100.48C3.08 81.16 8.12 48.68 30.52 26.56C44.52 12.84 64.68 3.03999 91.84 3.03999C119 3.03999 139.16 12.84 153.16 26.56C175.56 48.68 180.6 81.16 180.6 100.48ZM91.84 58.48C87.36 58.48 83.44 59.88 79.8 63.24C71.12 71.08 67.76 87.32 67.76 99.64C67.76 113.92 71.4 128.2 79.8 135.76C83.44 139.12 87.36 140.52 91.84 140.52C96.88 140.52 100.24 138.56 103.6 135.76C115.36 125.4 115.64 104.96 115.64 99.64C115.64 85.36 112 70.8 103.6 63.24C100.24 60.44 96.88 58.48 91.84 58.48ZM296.45 194H229.25V67.44L200.41 69.68V7.23998H296.45V194Z"/>
</mask>
<path d="M153.16 174.68L154.694 176.246L154.7 176.24L153.16 174.68ZM30.52 174.68L28.9796 176.24L28.9855 176.246L30.52 174.68ZM30.52 26.56L28.9855 24.9942L28.9796 25.0001L30.52 26.56ZM153.16 26.56L154.7 25.0001L154.694 24.9942L153.16 26.56ZM79.8 63.24L81.2695 64.8669L81.2783 64.859L81.287 64.8509L79.8 63.24ZM79.8 135.76L81.287 134.149L81.2768 134.14L81.2666 134.13L79.8 135.76ZM103.6 135.76L105.003 137.444L105.027 137.425L105.049 137.405L103.6 135.76ZM103.6 63.24L105.067 61.6105L105.036 61.5825L105.003 61.5558L103.6 63.24ZM180.6 100.48H178.408C178.408 119.849 173.404 151.608 151.62 173.12L153.16 174.68L154.7 176.24C177.716 153.512 182.792 120.311 182.792 100.48H180.6ZM153.16 174.68L151.626 173.114C138.034 186.434 118.425 196.008 91.84 196.008V198.2V200.392C119.575 200.392 140.286 190.366 154.694 176.246L153.16 174.68ZM91.84 198.2V196.008C65.2555 196.008 45.6459 186.434 32.0545 173.114L30.52 174.68L28.9855 176.246C43.3941 190.366 64.1045 200.392 91.84 200.392V198.2ZM30.52 174.68L32.0604 173.12C10.2761 151.608 5.27231 119.849 5.27231 100.48H3.08H0.887693C0.887693 120.311 5.96386 153.512 28.9796 176.24L30.52 174.68ZM3.08 100.48H5.27231C5.27231 81.3938 10.2749 49.6331 32.0604 28.1199L30.52 26.56L28.9796 25.0001C5.96511 47.7269 0.887693 80.9262 0.887693 100.48H3.08ZM30.52 26.56L32.0545 28.1258C45.6459 14.8062 65.2555 5.2323 91.84 5.2323V3.03999V0.847679C64.1045 0.847679 43.3941 10.8738 28.9855 24.9942L30.52 26.56ZM91.84 3.03999V5.2323C118.425 5.2323 138.034 14.8062 151.626 28.1258L153.16 26.56L154.694 24.9942C140.286 10.8738 119.575 0.847679 91.84 0.847679V3.03999ZM153.16 26.56L151.62 28.1199C173.405 49.6331 178.408 81.3938 178.408 100.48H180.6H182.792C182.792 80.9262 177.715 47.7269 154.7 25.0001L153.16 26.56ZM91.84 58.48V56.2877C86.8226 56.2877 82.368 57.886 78.313 61.6291L79.8 63.24L81.287 64.8509C84.512 61.874 87.8974 60.6723 91.84 60.6723V58.48ZM79.8 63.24L78.3305 61.6131C73.5662 65.9164 70.4018 72.3734 68.4209 79.1444C66.4296 85.9509 65.5677 93.3012 65.5677 99.64H67.76H69.9523C69.9523 93.6588 70.7704 86.7291 72.6291 80.3756C74.4982 73.9866 77.3538 68.4036 81.2695 64.8669L79.8 63.24ZM67.76 99.64H65.5677C65.5677 114.117 69.2297 129.196 78.3334 137.39L79.8 135.76L81.2666 134.13C73.5703 127.204 69.9523 113.723 69.9523 99.64H67.76ZM79.8 135.76L78.313 137.371C82.368 141.114 86.8226 142.712 91.84 142.712V140.52V138.328C87.8974 138.328 84.512 137.126 81.287 134.149L79.8 135.76ZM91.84 140.52V142.712C97.5914 142.712 101.435 140.418 105.003 137.444L103.6 135.76L102.197 134.076C99.0449 136.702 96.1686 138.328 91.84 138.328V140.52ZM103.6 135.76L105.049 137.405C111.44 131.775 114.591 123.537 116.172 116.277C117.763 108.973 117.832 102.345 117.832 99.64H115.64H113.448C113.448 102.255 113.377 108.507 111.888 115.343C110.389 122.223 107.52 129.385 102.151 134.115L103.6 135.76ZM115.64 99.64H117.832C117.832 92.3271 116.902 84.8937 114.865 78.2753C112.834 71.6738 109.658 65.743 105.067 61.6105L103.6 63.24L102.133 64.8695C105.942 68.297 108.786 73.4262 110.675 79.5647C112.558 85.6863 113.448 92.6729 113.448 99.64H115.64ZM103.6 63.24L105.003 61.5558C101.435 58.5822 97.5914 56.2877 91.84 56.2877V58.48V60.6723C96.1686 60.6723 99.0449 62.2978 102.197 64.9242L103.6 63.24ZM296.45 194V196.192H298.642V194H296.45ZM229.25 194H227.058V196.192H229.25V194ZM229.25 67.44H231.442V65.0708L229.08 65.2543L229.25 67.44ZM200.41 69.68H198.218V72.0492L200.58 71.8657L200.41 69.68ZM200.41 7.23998V5.04768H198.218V7.23998H200.41ZM296.45 7.23998H298.642V5.04768H296.45V7.23998ZM296.45 194V191.808H229.25V194V196.192H296.45V194ZM229.25 194H231.442V67.44H229.25H227.058V194H229.25ZM229.25 67.44L229.08 65.2543L200.24 67.4943L200.41 69.68L200.58 71.8657L229.42 69.6257L229.25 67.44ZM200.41 69.68H202.602V7.23998H200.41H198.218V69.68H200.41ZM200.41 7.23998V9.43229H296.45V7.23998V5.04768H200.41V7.23998ZM296.45 7.23998H294.258V194H296.45H298.642V7.23998H296.45Z" fill="#038E43" mask="url(#path-1-outside-1_129_650)"/>
</svg>
