<svg width="369" height="196" viewBox="0 0 369 196" fill="none" xmlns="http://www.w3.org/2000/svg">
<path d="M177.6 97.48C177.6 117.08 172.56 149.56 150.16 171.68C136.16 185.4 116 195.2 88.84 195.2C61.68 195.2 41.52 185.4 27.52 171.68C5.12 149.56 0.0800006 117.08 0.0800006 97.48C0.0800006 78.16 5.12 45.68 27.52 23.56C41.52 9.84 61.68 0.0399885 88.84 0.0399885C116 0.0399885 136.16 9.84 150.16 23.56C172.56 45.68 177.6 78.16 177.6 97.48ZM88.84 55.48C84.36 55.48 80.44 56.88 76.8 60.24C68.12 68.08 64.76 84.32 64.76 96.64C64.76 110.92 68.4 125.2 76.8 132.76C80.44 136.12 84.36 137.52 88.84 137.52C93.88 137.52 97.24 135.56 100.6 132.76C112.36 122.4 112.64 101.96 112.64 96.64C112.64 82.36 109 67.8 100.6 60.24C97.24 57.44 93.88 55.48 88.84 55.48ZM368.569 133.6V191H183.489L260.209 122.96C269.169 115.12 275.889 109.24 286.529 96.64C292.409 89.64 299.129 80.4 299.129 70.04C299.129 66.12 297.729 62.48 294.649 59.68C291.569 56.6 287.649 55.48 283.449 55.48C276.729 55.48 273.089 58.84 271.409 61.08C268.329 65 266.929 73.68 266.929 79H200.849C200.289 56.88 208.129 36.72 219.049 24.68C233.889 8.44 259.089 0.0399885 285.409 0.0399885C313.409 0.0399885 335.249 9.56 348.969 23.56C357.089 31.96 366.329 45.68 366.329 66.12C366.329 84.04 360.729 99.16 346.729 112.32C332.449 126.04 311.729 134.44 300.529 138.36V140.32C312.849 137.8 326.849 135.56 340.009 135L368.569 133.6Z" fill="#038E43"/>
</svg>
