<svg width="372" height="201" viewBox="0 0 372 201" fill="none" xmlns="http://www.w3.org/2000/svg">
<mask id="path-1-outside-1_161_289" maskUnits="userSpaceOnUse" x="0" y="0" width="372" height="201" fill="black">
<rect fill="white" width="372" height="201"/>
<path d="M180.6 100.48C180.6 120.08 175.56 152.56 153.16 174.68C139.16 188.4 119 198.2 91.84 198.2C64.68 198.2 44.52 188.4 30.52 174.68C8.12 152.56 3.08 120.08 3.08 100.48C3.08 81.16 8.12 48.68 30.52 26.56C44.52 12.84 64.68 3.03999 91.84 3.03999C119 3.03999 139.16 12.84 153.16 26.56C175.56 48.68 180.6 81.16 180.6 100.48ZM91.84 58.48C87.36 58.48 83.44 59.88 79.8 63.24C71.12 71.08 67.76 87.32 67.76 99.64C67.76 113.92 71.4 128.2 79.8 135.76C83.44 139.12 87.36 140.52 91.84 140.52C96.88 140.52 100.24 138.56 103.6 135.76C115.36 125.4 115.64 104.96 115.64 99.64C115.64 85.36 112 70.8 103.6 63.24C100.24 60.44 96.88 58.48 91.84 58.48ZM338.809 95.16C347.209 97.68 353.649 102.16 358.129 106.64C365.969 114.48 369.609 123.72 369.609 136.88C369.609 152.84 364.009 166 353.369 176.36C332.649 197.08 302.969 198.2 285.329 198.2C244.449 198.2 224.569 185.32 215.049 175.52C206.089 166.56 197.129 150.6 196.849 129.6H265.169C265.169 136.6 267.969 142.76 271.609 146.12C274.409 148.92 278.889 150.88 284.489 150.88C290.929 150.88 295.129 148.36 297.649 145.84C300.729 142.76 302.689 138.28 302.689 133.24C302.689 128.48 301.009 124 298.209 120.64C292.329 114.2 282.809 114.2 276.369 115.88V77.24C281.969 78.64 287.849 77.52 291.489 74.44C294.569 71.92 295.969 68.28 295.969 62.96C295.969 59.6 294.849 56.24 292.049 53.72C290.089 51.76 287.009 50.64 283.089 50.64C279.449 50.64 276.369 52.32 274.689 54C272.449 56.24 270.769 60.44 271.049 64.92H204.409C204.689 54 207.769 31.32 231.289 15.92C247.809 5 269.089 3.03999 284.209 3.03999C317.249 3.03999 336.009 13.4 346.369 23.2C358.409 34.68 361.769 47.84 361.769 57.64C361.769 69.68 357.569 78.64 352.809 83.96C348.889 88.16 343.849 91.8 338.809 93.76V95.16Z"/>
</mask>
<path d="M153.16 174.68L154.694 176.246L154.7 176.24L153.16 174.68ZM30.52 174.68L28.9796 176.24L28.9855 176.246L30.52 174.68ZM30.52 26.56L28.9855 24.9942L28.9796 25.0001L30.52 26.56ZM153.16 26.56L154.7 25.0001L154.694 24.9942L153.16 26.56ZM79.8 63.24L81.2695 64.8669L81.2783 64.859L81.287 64.8509L79.8 63.24ZM79.8 135.76L81.287 134.149L81.2768 134.14L81.2666 134.13L79.8 135.76ZM103.6 135.76L105.003 137.444L105.027 137.425L105.049 137.405L103.6 135.76ZM103.6 63.24L105.067 61.6105L105.036 61.5825L105.003 61.5558L103.6 63.24ZM180.6 100.48H178.408C178.408 119.849 173.404 151.608 151.62 173.12L153.16 174.68L154.7 176.24C177.716 153.512 182.792 120.311 182.792 100.48H180.6ZM153.16 174.68L151.626 173.114C138.034 186.434 118.425 196.008 91.84 196.008V198.2V200.392C119.575 200.392 140.286 190.366 154.694 176.246L153.16 174.68ZM91.84 198.2V196.008C65.2555 196.008 45.6459 186.434 32.0545 173.114L30.52 174.68L28.9855 176.246C43.3941 190.366 64.1045 200.392 91.84 200.392V198.2ZM30.52 174.68L32.0604 173.12C10.2761 151.608 5.27231 119.849 5.27231 100.48H3.08H0.887693C0.887693 120.311 5.96386 153.512 28.9796 176.24L30.52 174.68ZM3.08 100.48H5.27231C5.27231 81.3938 10.2749 49.6331 32.0604 28.1199L30.52 26.56L28.9796 25.0001C5.96511 47.7269 0.887693 80.9262 0.887693 100.48H3.08ZM30.52 26.56L32.0545 28.1258C45.6459 14.8062 65.2555 5.2323 91.84 5.2323V3.03999V0.847679C64.1045 0.847679 43.3941 10.8738 28.9855 24.9942L30.52 26.56ZM91.84 3.03999V5.2323C118.425 5.2323 138.034 14.8062 151.626 28.1258L153.16 26.56L154.694 24.9942C140.286 10.8738 119.575 0.847679 91.84 0.847679V3.03999ZM153.16 26.56L151.62 28.1199C173.405 49.6331 178.408 81.3938 178.408 100.48H180.6H182.792C182.792 80.9262 177.715 47.7269 154.7 25.0001L153.16 26.56ZM91.84 58.48V56.2877C86.8226 56.2877 82.368 57.886 78.313 61.6291L79.8 63.24L81.287 64.8509C84.512 61.874 87.8974 60.6723 91.84 60.6723V58.48ZM79.8 63.24L78.3305 61.6131C73.5662 65.9164 70.4018 72.3734 68.4209 79.1444C66.4296 85.9509 65.5677 93.3012 65.5677 99.64H67.76H69.9523C69.9523 93.6588 70.7704 86.7291 72.6291 80.3756C74.4982 73.9866 77.3538 68.4036 81.2695 64.8669L79.8 63.24ZM67.76 99.64H65.5677C65.5677 114.117 69.2297 129.196 78.3334 137.39L79.8 135.76L81.2666 134.13C73.5703 127.204 69.9523 113.723 69.9523 99.64H67.76ZM79.8 135.76L78.313 137.371C82.368 141.114 86.8226 142.712 91.84 142.712V140.52V138.328C87.8974 138.328 84.512 137.126 81.287 134.149L79.8 135.76ZM91.84 140.52V142.712C97.5914 142.712 101.435 140.418 105.003 137.444L103.6 135.76L102.197 134.076C99.0449 136.702 96.1686 138.328 91.84 138.328V140.52ZM103.6 135.76L105.049 137.405C111.44 131.775 114.591 123.537 116.172 116.277C117.763 108.973 117.832 102.345 117.832 99.64H115.64H113.448C113.448 102.255 113.377 108.507 111.888 115.343C110.389 122.223 107.52 129.385 102.151 134.115L103.6 135.76ZM115.64 99.64H117.832C117.832 92.3271 116.902 84.8937 114.865 78.2753C112.834 71.6738 109.658 65.743 105.067 61.6105L103.6 63.24L102.133 64.8695C105.942 68.297 108.786 73.4262 110.675 79.5647C112.558 85.6863 113.448 92.6729 113.448 99.64H115.64ZM103.6 63.24L105.003 61.5558C101.435 58.5822 97.5914 56.2877 91.84 56.2877V58.48V60.6723C96.1686 60.6723 99.0449 62.2978 102.197 64.9242L103.6 63.24ZM338.809 95.16H336.616V96.7911L338.179 97.2598L338.809 95.16ZM358.129 106.64L359.679 105.09L358.129 106.64ZM353.369 176.36L351.839 174.789L351.829 174.799L351.819 174.81L353.369 176.36ZM215.049 175.52L216.621 173.992L216.61 173.981L216.599 173.97L215.049 175.52ZM196.849 129.6V127.408H194.627L194.657 129.629L196.849 129.6ZM265.169 129.6H267.361V127.408H265.169V129.6ZM271.609 146.12L273.159 144.57L273.128 144.539L273.096 144.509L271.609 146.12ZM298.209 120.64L299.893 119.237L299.861 119.198L299.828 119.162L298.209 120.64ZM276.369 115.88H274.176V118.718L276.922 118.001L276.369 115.88ZM276.369 77.24L276.9 75.1131L274.176 74.4321V77.24H276.369ZM291.489 74.44L290.1 72.7432L290.086 72.7547L290.073 72.7664L291.489 74.44ZM292.049 53.72L290.499 55.2702L290.539 55.311L290.582 55.3495L292.049 53.72ZM274.689 54L276.239 55.5502V55.5502L274.689 54ZM271.049 64.92V67.1123H273.382L273.237 64.7832L271.049 64.92ZM204.409 64.92L202.217 64.8638L202.16 67.1123H204.409V64.92ZM231.289 15.92L232.49 17.7541L232.498 17.7489L231.289 15.92ZM346.369 23.2L347.882 21.6133L347.875 21.6074L346.369 23.2ZM352.809 83.96L354.411 85.4559L354.427 85.439L354.443 85.4218L352.809 83.96ZM338.809 93.76L338.014 91.7168L336.616 92.2603V93.76H338.809ZM338.809 95.16L338.179 97.2598C346.186 99.662 352.319 103.931 356.579 108.19L358.129 106.64L359.679 105.09C354.978 100.389 348.232 95.698 339.439 93.0601L338.809 95.16ZM358.129 106.64L356.579 108.19C363.949 115.561 367.416 124.213 367.416 136.88H369.609H371.801C371.801 123.227 367.988 113.399 359.679 105.09L358.129 106.64ZM369.609 136.88H367.416C367.416 152.268 362.042 164.855 351.839 174.789L353.369 176.36L354.898 177.931C365.976 167.145 371.801 153.412 371.801 136.88H369.609ZM353.369 176.36L351.819 174.81C331.8 194.829 302.997 196.008 285.329 196.008V198.2V200.392C302.94 200.392 333.498 199.331 354.919 177.91L353.369 176.36ZM285.329 198.2V196.008C244.962 196.008 225.676 183.314 216.621 173.992L215.049 175.52L213.476 177.048C223.461 187.326 243.936 200.392 285.329 200.392V198.2ZM215.049 175.52L216.599 173.97C208.011 165.381 199.313 149.955 199.041 129.571L196.849 129.6L194.657 129.629C194.945 151.245 204.167 167.739 213.499 177.07L215.049 175.52ZM196.849 129.6V131.792H265.169V129.6V127.408H196.849V129.6ZM265.169 129.6H262.976C262.976 137.127 265.973 143.902 270.122 147.731L271.609 146.12L273.096 144.509C269.964 141.618 267.361 136.073 267.361 129.6H265.169ZM271.609 146.12L270.059 147.67C273.32 150.932 278.383 153.072 284.489 153.072V150.88V148.688C279.394 148.688 275.497 146.908 273.159 144.57L271.609 146.12ZM284.489 150.88V153.072C291.566 153.072 296.309 150.28 299.199 147.39L297.649 145.84L296.099 144.29C293.949 146.44 290.292 148.688 284.489 148.688V150.88ZM297.649 145.84L299.199 147.39C302.698 143.891 304.881 138.85 304.881 133.24H302.689H300.496C300.496 137.71 298.759 141.629 296.099 144.29L297.649 145.84ZM302.689 133.24H304.881C304.881 127.971 303.024 122.993 299.893 119.237L298.209 120.64L296.525 122.043C298.994 125.007 300.496 128.989 300.496 133.24H302.689ZM298.209 120.64L299.828 119.162C293.12 111.815 282.54 112.005 275.815 113.759L276.369 115.88L276.922 118.001C283.078 116.395 291.537 116.585 296.59 122.118L298.209 120.64ZM276.369 115.88H278.561V77.24H276.369H274.176V115.88H276.369ZM276.369 77.24L275.837 79.3668C281.975 80.9013 288.621 79.7388 292.905 76.1136L291.489 74.44L290.073 72.7664C287.077 75.3012 281.963 76.3787 276.9 75.1131L276.369 77.24ZM291.489 74.44L292.877 76.1367C296.632 73.0648 298.161 68.6885 298.161 62.96H295.969H293.776C293.776 67.8715 292.506 70.7752 290.1 72.7432L291.489 74.44ZM295.969 62.96H298.161C298.161 59.1069 296.865 55.105 293.515 52.0905L292.049 53.72L290.582 55.3495C292.833 57.375 293.776 60.093 293.776 62.96H295.969ZM292.049 53.72L293.599 52.1698C291.109 49.6799 287.397 48.4477 283.089 48.4477V50.64V52.8323C286.62 52.8323 289.068 53.8401 290.499 55.2702L292.049 53.72ZM283.089 50.64V48.4477C278.803 48.4477 275.182 50.4068 273.139 52.4498L274.689 54L276.239 55.5502C277.556 54.2332 280.095 52.8323 283.089 52.8323V50.64ZM274.689 54L273.139 52.4498C270.403 55.1858 268.546 60.025 268.861 65.0567L271.049 64.92L273.237 64.7832C272.991 60.855 274.495 57.2942 276.239 55.5502L274.689 54ZM271.049 64.92V62.7277H204.409V64.92V67.1123H271.049V64.92ZM204.409 64.92L206.6 64.9762C206.872 54.3655 209.848 32.5789 232.49 17.7541L231.289 15.92L230.088 14.0859C205.689 30.0611 202.505 53.6345 202.217 64.8638L204.409 64.92ZM231.289 15.92L232.498 17.7489C248.456 7.19992 269.185 5.2323 284.209 5.2323V3.03999V0.847679C268.993 0.847679 247.161 2.80007 230.08 14.0911L231.289 15.92ZM284.209 3.03999V5.2323C316.747 5.2323 334.95 15.4161 344.862 24.7926L346.369 23.2L347.875 21.6074C337.068 11.3839 317.751 0.847679 284.209 0.847679V3.03999ZM346.369 23.2L344.856 24.7867C356.397 35.7911 359.576 48.3436 359.576 57.64H361.769H363.961C363.961 47.3364 360.42 33.5689 347.882 21.6133L346.369 23.2ZM361.769 57.64H359.576C359.576 69.1656 355.559 77.5984 351.175 82.4982L352.809 83.96L354.443 85.4218C359.579 79.6816 363.961 70.1943 363.961 57.64H361.769ZM352.809 83.96L351.206 82.4641C347.47 86.4673 342.695 89.8962 338.014 91.7168L338.809 93.76L339.603 95.8032C345.002 93.7037 350.308 89.8527 354.411 85.4559L352.809 83.96ZM338.809 93.76H336.616V95.16H338.809H341.001V93.76H338.809Z" fill="#038E43" mask="url(#path-1-outside-1_161_289)"/>
</svg>
