<svg width="379" height="196" viewBox="0 0 379 196" fill="none" xmlns="http://www.w3.org/2000/svg">
<path d="M177.6 97.48C177.6 117.08 172.56 149.56 150.16 171.68C136.16 185.4 116 195.2 88.84 195.2C61.68 195.2 41.52 185.4 27.52 171.68C5.12 149.56 0.0800006 117.08 0.0800006 97.48C0.0800006 78.16 5.12 45.68 27.52 23.56C41.52 9.84 61.68 0.0399885 88.84 0.0399885C116 0.0399885 136.16 9.84 150.16 23.56C172.56 45.68 177.6 78.16 177.6 97.48ZM88.84 55.48C84.36 55.48 80.44 56.88 76.8 60.24C68.12 68.08 64.76 84.32 64.76 96.64C64.76 110.92 68.4 125.2 76.8 132.76C80.44 136.12 84.36 137.52 88.84 137.52C93.88 137.52 97.24 135.56 100.6 132.76C112.36 122.4 112.64 101.96 112.64 96.64C112.64 82.36 109 67.8 100.6 60.24C97.24 57.44 93.88 55.48 88.84 55.48ZM353.278 153.76L354.958 191H290.838L293.078 153.76L198.438 155.72V106.72L274.878 4.23998H354.958V104.76L378.478 103.08V155.72L353.278 153.76ZM276.278 104.76H293.358V77.88C293.358 72.56 294.478 66.96 296.158 61.64L294.478 60.52C291.678 66.4 288.878 70.04 286.078 73.68L268.438 96.36C265.918 99.72 264.798 101.68 260.318 105.32L260.878 106.72C266.198 105.32 270.678 104.76 276.278 104.76Z" fill="#038E43"/>
</svg>
