<svg width="190" height="491" viewBox="0 0 190 491" fill="none" xmlns="http://www.w3.org/2000/svg">
<mask id="path-1-inside-1_2001_297" fill="white">
<path d="M21.3036 104.228C21.3036 65.6134 42.928 31.1174 74.3349 8.4632L102.653 31.6322C86.1769 40.385 67.1268 62.0094 63.0079 80.0297C64.5524 79.5149 69.1863 78.4851 72.7903 78.4851C92.3553 78.4851 107.801 93.4163 107.801 115.556C107.801 138.21 89.2661 156.745 67.6417 156.745C43.4429 156.745 21.3036 137.695 21.3036 104.228Z"/>
</mask>
<path d="M74.3349 8.46319L74.8783 7.79907L74.3679 7.3814L73.8329 7.76727L74.3349 8.46319ZM102.653 31.6322L103.055 32.39L104.194 31.7849L103.196 30.9681L102.653 31.6322ZM63.0079 80.0297L62.1713 79.8385L61.8312 81.3265L63.2792 80.8438L63.0079 80.0297ZM21.3036 104.228L22.1617 104.228C22.1617 65.9473 43.6019 31.6893 74.8369 9.15917L74.3349 8.46319L73.8329 7.76727C42.2542 30.5453 20.4455 65.2796 20.4455 104.228L21.3036 104.228ZM74.3349 8.46319L73.7915 9.12731L102.109 32.2964L102.653 31.6322L103.196 30.9681L74.8783 7.79907L74.3349 8.46319ZM102.653 31.6322L102.25 30.8744C93.892 35.3146 84.928 42.9892 77.5388 51.8044C70.1545 60.6137 64.2724 70.6463 62.1713 79.8385L63.0079 80.0297L63.8444 80.2209C65.8623 71.3928 71.5647 61.603 78.8541 52.9069C86.1386 44.2166 94.9375 36.7026 103.055 32.39L102.653 31.6322ZM63.0079 80.0297L63.2792 80.8438C64.7546 80.352 69.2959 79.3432 72.7903 79.3432L72.7903 78.4851L72.7903 77.627C69.0766 77.627 64.3503 78.6777 62.7365 79.2157L63.0079 80.0297ZM72.7903 78.4851L72.7903 79.3432C91.8571 79.3432 106.943 93.8656 106.943 115.556L107.801 115.556L108.659 115.556C108.659 92.9669 92.8534 77.627 72.7903 77.627L72.7903 78.4851ZM107.801 115.556L106.943 115.556C106.943 137.75 88.7781 155.887 67.6417 155.887L67.6417 156.745L67.6417 157.603C89.754 157.603 108.659 138.669 108.659 115.556L107.801 115.556ZM67.6417 156.745L67.6417 155.887C43.9521 155.887 22.1617 137.257 22.1617 104.228L21.3036 104.228L20.4455 104.228C20.4455 138.133 42.9337 157.603 67.6417 157.603L67.6417 156.745Z" fill="#12924D" mask="url(#path-1-inside-1_2001_297)"/>
<mask id="path-3-inside-2_2001_297" fill="white">
<path d="M89.3036 104.228C89.3036 65.6134 110.928 31.1174 142.335 8.4632L170.653 31.6322C154.177 40.385 135.127 62.0094 131.008 80.0297C132.552 79.5149 137.186 78.4851 140.79 78.4851C160.355 78.4851 175.801 93.4163 175.801 115.556C175.801 138.21 157.266 156.745 135.642 156.745C111.443 156.745 89.3036 137.695 89.3036 104.228Z"/>
</mask>
<path d="M142.335 8.46319L142.878 7.79907L142.368 7.3814L141.833 7.76727L142.335 8.46319ZM170.653 31.6322L171.055 32.39L172.194 31.7849L171.196 30.9681L170.653 31.6322ZM131.008 80.0297L130.171 79.8385L129.831 81.3265L131.279 80.8438L131.008 80.0297ZM89.3036 104.228L90.1617 104.228C90.1617 65.9473 111.602 31.6893 142.837 9.15917L142.335 8.46319L141.833 7.76727C110.254 30.5453 88.4455 65.2796 88.4455 104.228L89.3036 104.228ZM142.335 8.46319L141.792 9.12731L170.109 32.2964L170.653 31.6322L171.196 30.9681L142.878 7.79907L142.335 8.46319ZM170.653 31.6322L170.25 30.8744C161.892 35.3146 152.928 42.9892 145.539 51.8044C138.154 60.6137 132.272 70.6463 130.171 79.8385L131.008 80.0297L131.844 80.2209C133.862 71.3928 139.565 61.603 146.854 52.9069C154.139 44.2166 162.937 36.7026 171.055 32.39L170.653 31.6322ZM131.008 80.0297L131.279 80.8438C132.755 80.352 137.296 79.3432 140.79 79.3432L140.79 78.4851L140.79 77.627C137.077 77.627 132.35 78.6777 130.736 79.2157L131.008 80.0297ZM140.79 78.4851L140.79 79.3432C159.857 79.3432 174.943 93.8656 174.943 115.556L175.801 115.556L176.659 115.556C176.659 92.9669 160.853 77.627 140.79 77.627L140.79 78.4851ZM175.801 115.556L174.943 115.556C174.943 137.75 156.778 155.887 135.642 155.887L135.642 156.745L135.642 157.603C157.754 157.603 176.659 138.669 176.659 115.556L175.801 115.556ZM135.642 156.745L135.642 155.887C111.952 155.887 90.1617 137.257 90.1617 104.228L89.3036 104.228L88.4455 104.228C88.4455 138.133 110.934 157.603 135.642 157.603L135.642 156.745Z" fill="#12924D" mask="url(#path-3-inside-2_2001_297)"/>
</svg>
