<svg width="17" height="16" viewBox="0 0 17 16" fill="none" xmlns="http://www.w3.org/2000/svg">
<path d="M7.37502 15.2901L0.775017 8.69005C0.675017 8.59005 0.604017 8.48165 0.562017 8.36505C0.520017 8.24835 0.499317 8.12335 0.500017 7.99005C0.500017 7.85665 0.521017 7.73165 0.563017 7.61505C0.605017 7.49835 0.675717 7.39005 0.775017 7.29005L7.37502 0.690052C7.55832 0.506652 7.78772 0.411051 8.06302 0.403051C8.33832 0.395051 8.57572 0.490652 8.77502 0.690052C8.97502 0.873352 9.07932 1.10265 9.08802 1.37805C9.09672 1.65335 9.00072 1.89065 8.80002 2.09005L3.90002 6.99005H15.075C15.3583 6.99005 15.596 7.08605 15.788 7.27805C15.98 7.47005 16.0757 7.70735 16.075 7.99005C16.075 8.27335 15.9793 8.51105 15.788 8.70305C15.5967 8.89505 15.359 8.99065 15.075 8.99005H3.90002L8.80002 13.8901C8.98332 14.0734 9.07932 14.3067 9.08802 14.5901C9.09672 14.8734 9.00072 15.1067 8.80002 15.2901C8.61672 15.4901 8.38332 15.5901 8.10002 15.5901C7.81672 15.5901 7.57502 15.4901 7.37502 15.2901Z" fill="#038E43"/>
</svg>
