<svg width="24" height="24" viewBox="0 0 24 24" fill="none" xmlns="http://www.w3.org/2000/svg">
<path d="M20.178 3.77557C19.1145 2.70129 17.8478 1.84962 16.4517 1.26997C15.0556 0.690434 13.5581 0.39475 12.0464 0.39997C5.71281 0.39997 0.550808 5.56197 0.550808 11.8956C0.550808 13.9256 1.08441 15.8976 2.08201 17.6376L0.458008 23.6L6.54801 21.9992C8.23001 22.9156 10.1208 23.4028 12.0464 23.4028C18.38 23.4028 23.5421 18.2408 23.5421 11.9072C23.5421 8.83317 22.3472 5.94477 20.178 3.77557ZM12.0464 21.454C10.3296 21.454 8.64761 20.99 7.17441 20.12L6.82641 19.9112L3.20721 20.8624L4.17001 17.336L3.93801 16.9764C2.98425 15.4533 2.4778 13.6926 2.47641 11.8956C2.47641 6.62917 6.76841 2.33717 12.0348 2.33717C14.5868 2.33717 16.988 3.33477 18.786 5.14437C19.6763 6.03061 20.3818 7.0847 20.8617 8.24551C21.3416 9.40644 21.5864 10.651 21.5816 11.9072C21.6049 17.1736 17.3128 21.454 12.0464 21.454ZM17.2896 14.3084C16.9996 14.1692 15.5844 13.4732 15.3292 13.3688C15.0624 13.276 14.8768 13.2296 14.6796 13.508C14.4824 13.798 13.9372 14.4476 13.7748 14.6332C13.6124 14.8304 13.4384 14.8536 13.1484 14.7028C12.8584 14.5636 11.9304 14.2504 10.84 13.276C9.98161 12.5104 9.41321 11.5708 9.23921 11.2808C9.07681 10.9908 9.21601 10.84 9.36681 10.6892C9.49441 10.5616 9.65681 10.3528 9.79601 10.1904C9.93521 10.028 9.99321 9.90037 10.086 9.71477C10.1788 9.51757 10.1324 9.35517 10.0628 9.21597C9.99321 9.07677 9.41321 7.66157 9.18121 7.08157C8.94921 6.52477 8.70561 6.59437 8.53161 6.58277H7.97481C7.77761 6.58277 7.47601 6.65237 7.20921 6.94237C6.95401 7.23237 6.21161 7.92837 6.21161 9.34357C6.21161 10.7588 7.24401 12.1276 7.38321 12.3132C7.52241 12.5104 9.41321 15.4104 12.29 16.6516C12.9744 16.9532 13.508 17.1272 13.9256 17.2548C14.61 17.4752 15.2364 17.4404 15.7352 17.3708C16.292 17.2896 17.4404 16.6748 17.6724 16.002C17.916 15.3292 17.916 14.7608 17.8348 14.6332C17.7536 14.5056 17.5796 14.4476 17.2896 14.3084Z" fill="#038E43"/>
</svg>
