<svg width="17" height="16" viewBox="0 0 17 16" fill="none" xmlns="http://www.w3.org/2000/svg">
<path d="M9.62481 15.2901L16.2248 8.69005C16.3248 8.59005 16.3958 8.48165 16.4378 8.36505C16.4798 8.24835 16.5005 8.12335 16.4998 7.99005C16.4998 7.85665 16.4788 7.73165 16.4368 7.61505C16.3948 7.49835 16.3241 7.39005 16.2248 7.29005L9.62481 0.690052C9.44151 0.506652 9.21211 0.411051 8.93681 0.403051C8.66151 0.395051 8.42411 0.490652 8.22481 0.690052C8.02481 0.873352 7.92051 1.10265 7.91181 1.37805C7.90311 1.65335 7.99911 1.89065 8.19981 2.09005L13.0998 6.99005H1.92481C1.64151 6.99005 1.40381 7.08605 1.21181 7.27805C1.01981 7.47005 0.924108 7.70735 0.924808 7.99005C0.924808 8.27335 1.02051 8.51105 1.21181 8.70305C1.40311 8.89505 1.64081 8.99065 1.92481 8.99005H13.0998L8.19981 13.8901C8.01651 14.0734 7.92051 14.3067 7.91181 14.5901C7.90311 14.8734 7.99911 15.1067 8.19981 15.2901C8.38311 15.4901 8.61651 15.5901 8.89981 15.5901C9.18311 15.5901 9.42481 15.4901 9.62481 15.2901Z" fill="#038E43"/>
</svg>
