<svg width="23" height="19" viewBox="0 0 23 19" fill="none" xmlns="http://www.w3.org/2000/svg">
<path fill-rule="evenodd" clip-rule="evenodd" d="M2.17406 8.6465C7.98987 6.11254 11.8677 4.44185 13.8076 3.6344C19.348 1.33115 20.5052 0.931149 21.2494 0.916265C21.5254 0.910901 21.7961 0.992238 22.0234 1.14882C22.1829 1.28635 22.2845 1.47906 22.308 1.68836C22.3481 1.94865 22.3593 2.21258 22.3415 2.47534C22.042 5.63813 20.7415 13.2828 20.081 16.8158C19.802 18.3042 19.2513 18.8121 18.7173 18.8623C17.5601 18.9684 16.6708 18.0958 15.5545 17.3609C13.7982 16.2093 12.8066 15.5005 11.1024 14.3693C9.1322 13.067 10.4103 12.3581 11.5322 11.1935C11.8261 10.8884 16.9276 6.24464 17.028 5.82417C17.0413 5.76208 17.0397 5.69775 17.0236 5.63635C17.0074 5.57496 16.9771 5.51821 16.935 5.47068C16.8739 5.43252 16.8048 5.40911 16.7331 5.40233C16.6614 5.39555 16.5891 5.40557 16.522 5.43161C16.3471 5.47006 13.5427 7.32371 8.10895 10.9925C7.31267 11.5395 6.59143 11.8062 5.94522 11.7925C5.23267 11.7758 3.86336 11.3888 2.84382 11.0484C1.59545 10.6428 0.61127 10.4288 0.68941 9.74603C0.735301 9.38882 1.23018 9.02231 2.17406 8.6465Z" fill="#FEFEFE"/>
</svg>
