<svg width="76" height="76" viewBox="0 0 76 76" fill="none" xmlns="http://www.w3.org/2000/svg">
<circle cx="38" cy="37.9902" r="37.5" fill="#038E43"/>
<path d="M38.0015 27.7819C40.0901 27.7819 42.0931 28.5194 43.57 29.8322C45.0468 31.1449 45.8765 32.9254 45.8765 34.7819C45.8765 37.6535 46.5256 39.8038 47.3673 41.3851C48.4427 43.4055 48.9804 44.4157 48.9505 44.6464C48.9156 44.9157 48.8712 44.9898 48.6498 45.147C48.4601 45.2819 47.5164 45.2819 45.6288 45.2819H30.374C28.4865 45.2819 27.5428 45.2819 27.3531 45.147C27.1318 44.9898 27.0873 44.9157 27.0525 44.6464C27.0225 44.4157 27.5602 43.4055 28.6357 41.3851C29.4774 39.8038 30.1265 37.6535 30.1265 34.7819C30.1265 32.9254 30.9561 31.1449 32.433 29.8322C33.9098 28.5194 35.9128 27.7819 38.0015 27.7819ZM38.0015 27.7819V24.8652M34.1427 49.6569C35.1726 50.5659 36.5255 51.1176 38.0073 51.1176C39.489 51.1176 40.8419 50.5659 41.8719 49.6569" stroke="white" stroke-width="3" stroke-linecap="round" stroke-linejoin="round"/>
</svg>
