<svg width="76" height="76" viewBox="0 0 76 76" fill="none" xmlns="http://www.w3.org/2000/svg">
<circle cx="38" cy="37.9902" r="37.5" fill="#038E43"/>
<g clip-path="url(#clip0_148_202)">
<path fill-rule="evenodd" clip-rule="evenodd" d="M46.2365 20.4902C46.8047 20.4902 47.2659 20.9514 47.2659 21.5197V22.5491H50.3542C52.0568 22.5491 53.4424 23.9347 53.4424 25.6373V55.4902H22.5601V25.6373C22.5601 23.9347 23.9456 22.5491 25.6483 22.5491H28.7365V21.5197C28.7365 20.9514 29.1977 20.4903 29.7659 20.4903C30.3342 20.4903 30.7953 20.9514 30.7953 21.5197V22.5491H45.2071V21.5197C45.2071 20.9514 45.6683 20.4903 46.2365 20.4903L46.2365 20.4902ZM51.3836 30.7843H24.6189V53.4314H51.3836V30.7843ZM28.7365 24.6079H25.6483C25.0821 24.6079 24.6189 25.0691 24.6189 25.6373V28.7255H51.3836V25.6373C51.3836 25.0691 50.9204 24.6079 50.3542 24.6079H47.2659V25.6373C47.2659 26.2055 46.8047 26.6667 46.2365 26.6667C45.6683 26.6667 45.2071 26.2055 45.2071 25.6373V24.6079H30.7954V25.6373C30.7954 26.2055 30.3342 26.6667 29.7659 26.6667C29.1977 26.6667 28.7365 26.2055 28.7365 25.6373V24.6079ZM37.9911 46.3141C36.4903 46.3141 35.4114 45.6861 34.4479 44.5661L32.7926 46.0855C33.927 47.4526 35.605 48.4202 37.9541 48.4202C40.7664 48.4202 42.6729 46.6558 42.6729 44.2058V44.1688C42.6729 41.7188 40.7479 40.6935 38.7076 40.4464L42.4609 36.6499V34.902H33.5441V36.934H39.3788L35.7388 40.7511L36.1238 42.2129H37.2232C39.1091 42.2129 40.3238 42.952 40.3238 44.2614V44.3005C40.3238 45.5152 39.3211 46.3141 37.9911 46.3141Z" fill="white"/>
</g>
<defs>
<clipPath id="clip0_148_202">
<rect width="35" height="35" fill="white" transform="translate(20.5 20.4902)"/>
</clipPath>
</defs>
</svg>
