<svg width="76" height="76" viewBox="0 0 76 76" fill="none" xmlns="http://www.w3.org/2000/svg">
<circle cx="38" cy="37.9902" r="37.5" fill="#038E43"/>
<path fill-rule="evenodd" clip-rule="evenodd" d="M23.4168 21.4487C22.6114 21.4487 21.9585 22.1017 21.9585 22.9071C21.9585 23.7125 22.6114 24.3654 23.4168 24.3654H25.1949L30.3927 45.1567C28.8604 45.8373 27.7918 47.3724 27.7918 49.1571C27.7918 51.5734 29.7506 53.5321 32.1668 53.5321C34.5831 53.5321 36.5418 51.5734 36.5418 49.1571C36.5418 48.6458 36.454 48.1549 36.2929 47.6987H42.6241C42.463 48.1549 42.3752 48.6458 42.3752 49.1571C42.3752 51.5734 44.3339 53.5321 46.7502 53.5321C49.1665 53.5321 51.1252 51.5734 51.1252 49.1571C51.1252 46.7407 49.1665 44.7821 46.7502 44.7821H33.3055L32.5763 41.8654H46.7502C49.7605 41.8654 51.5654 39.9636 52.567 37.8636C53.5459 35.8114 53.8865 33.3588 54.0054 31.5749C54.1707 29.0906 52.1173 27.2821 49.8434 27.2821H28.9305L28.0244 23.658C27.6998 22.3596 26.5332 21.4487 25.1949 21.4487H23.4168ZM46.7502 38.9487H31.8471L29.6596 30.1987H49.8434C50.65 30.1987 51.1344 30.7919 51.0951 31.3811C50.9843 33.0457 50.674 35.0576 49.9346 36.608C49.218 38.1103 48.2378 38.9487 46.7502 38.9487ZM46.7502 50.6064C45.9497 50.6064 45.3009 49.9575 45.3009 49.1571C45.3009 48.3566 45.9497 47.7078 46.7502 47.7078C47.5506 47.7078 48.1995 48.3566 48.1995 49.1571C48.1995 49.9575 47.5506 50.6064 46.7502 50.6064ZM30.7175 49.1571C30.7175 49.9575 31.3664 50.6064 32.1668 50.6064C32.9673 50.6064 33.6162 49.9575 33.6162 49.1571C33.6162 48.3566 32.9673 47.7078 32.1668 47.7078C31.3664 47.7078 30.7175 48.3566 30.7175 49.1571Z" fill="white"/>
</svg>
