<svg width="1133" height="350" viewBox="0 0 1133 350" fill="none" xmlns="http://www.w3.org/2000/svg">
<path d="M566.093 52.2817C719.879 52.2817 859.091 66.0467 959.844 88.2954C1010.22 99.4207 1050.96 112.662 1079.09 127.348C1093.15 134.691 1104.04 142.383 1111.41 150.333C1118.77 158.279 1122.59 166.454 1122.59 174.782C1122.59 183.109 1118.77 191.284 1111.41 199.231C1104.04 207.18 1093.15 214.872 1079.09 222.215C1050.96 236.901 1010.22 250.143 959.844 261.268C859.091 283.517 719.879 297.282 566.093 297.282C412.307 297.282 273.094 283.517 172.342 261.268C121.962 250.143 81.225 236.901 53.0957 222.215C39.0307 214.872 28.1418 207.18 20.7754 199.231C13.4114 191.284 9.59277 183.109 9.59277 174.782C9.59277 166.454 13.4114 158.279 20.7754 150.333C28.1418 142.383 39.0307 134.691 53.0957 127.348C81.225 112.662 121.962 99.4207 172.342 88.2954C273.094 66.0467 412.307 52.2817 566.093 52.2817Z" stroke="#12924D"/>
<path d="M560.406 52.4139C714.027 45.2747 853.728 52.5621 955.404 70.1097C1006.25 78.8841 1047.55 90.2202 1076.33 103.585C1090.73 110.267 1101.96 117.445 1109.69 125.044C1117.41 132.64 1121.61 140.629 1121.99 148.947C1122.38 157.266 1118.94 165.609 1111.96 173.889C1104.97 182.172 1094.45 190.361 1080.74 198.349C1053.32 214.326 1013.24 229.444 963.434 242.896C863.823 269.798 725.4 290.011 571.78 297.15C418.159 304.289 278.458 297.001 176.781 279.454C125.939 270.679 84.6316 259.343 55.8509 245.979C41.4601 239.297 30.2259 232.119 22.4984 224.52C14.7735 216.923 10.5795 208.934 10.1929 200.616C9.8063 192.298 13.2413 183.954 20.2284 175.674C27.2178 167.391 37.7379 159.202 51.4469 151.214C78.8641 135.238 118.942 120.12 168.751 106.668C268.362 79.7658 406.786 59.5531 560.406 52.4139Z" stroke="#12924D"/>
<path d="M554.583 52.8238C707.689 38.374 847.579 38.9976 949.976 51.6811C1001.18 58.0234 1042.98 67.3786 1072.36 79.3566C1087.06 85.3459 1098.62 91.9804 1106.7 99.2025C1114.78 106.422 1119.35 114.202 1120.13 122.493C1120.91 130.783 1117.88 139.281 1111.3 147.885C1104.71 156.491 1094.59 165.172 1081.28 173.804C1054.65 191.068 1015.34 208.079 966.228 223.889C868.012 255.506 730.709 282.29 577.603 296.74C424.497 311.19 284.607 310.566 182.21 297.883C131.008 291.54 89.207 282.185 59.8223 270.207C45.1295 264.218 33.5661 257.583 25.4853 250.361C17.4072 243.142 12.8374 235.361 12.0549 227.071C11.2725 218.781 14.3061 210.283 20.8908 201.679C27.4777 193.073 37.5957 184.392 50.9085 175.76C77.5335 158.496 116.846 141.485 165.958 125.675C264.174 94.0582 401.477 67.2737 554.583 52.8238Z" stroke="#12924D"/>
</svg>
