<svg width="320" height="324" viewBox="0 0 320 324" fill="none" xmlns="http://www.w3.org/2000/svg">
<path d="M160 47.249C203.259 47.249 242.403 60.1486 270.72 80.9805C299.037 101.813 316.5 130.551 316.5 162.249C316.5 193.947 299.037 222.685 270.72 243.518C242.403 264.349 203.259 277.249 160 277.249C116.741 277.249 77.5973 264.349 49.2803 243.518C20.963 222.685 3.5 193.947 3.5 162.249C3.5 130.551 20.963 101.813 49.2803 80.9805C77.5973 60.1486 116.741 47.249 160 47.249Z" stroke="#12924D"/>
<path d="M158.393 49.2259C201.728 42.6424 241.121 49.3663 269.777 65.5336C298.435 81.7015 316.324 107.288 316.766 138.433C317.209 169.579 300.123 200.48 272.048 225.267C243.974 250.053 204.942 268.691 161.607 275.274C118.272 281.858 78.8798 275.134 50.2233 258.967C21.5657 242.799 3.67694 217.211 3.23417 186.066C2.79157 154.921 19.8773 124.02 47.9525 99.2336C76.0269 74.4477 115.058 55.8095 158.393 49.2259Z" stroke="#12924D"/>
<path d="M156.748 49.6055C199.944 36.2784 239.395 36.8595 268.258 48.5469C297.123 60.235 315.36 83.0085 316.256 114.041C317.151 145.074 300.54 178.598 272.854 207.733C245.169 236.867 206.448 261.566 163.252 274.893C120.056 288.221 80.6048 287.639 51.7418 275.952C22.877 264.264 4.64036 241.491 3.74429 210.459C2.84837 179.426 19.4596 145.901 47.146 116.766C74.8305 87.6319 113.552 62.9326 156.748 49.6055Z" stroke="#12924D"/>
</svg>
