<svg width="76" height="76" viewBox="0 0 76 76" fill="none" xmlns="http://www.w3.org/2000/svg">
<circle cx="38" cy="37.9902" r="37.5" fill="#038E43"/>
<g clip-path="url(#clip0_148_209)">
<path d="M51.5 32.5709C51.5 31.8226 50.8934 31.216 50.1452 31.216C49.3969 31.216 48.7903 31.8226 48.7903 32.5709H51.5ZM35.6935 49.2806C34.9453 49.2806 34.3387 49.8872 34.3387 50.6354C34.3387 51.3836 34.9453 51.9902 35.6935 51.9902V49.2806ZM48.7903 32.5709C48.7903 33.3191 49.3969 33.9257 50.1452 33.9257C50.8934 33.9257 51.5 33.3191 51.5 32.5709H48.7903ZM35.6935 23.9902C34.9453 23.9902 34.3387 24.5968 34.3387 25.3451C34.3387 26.0933 34.9453 26.6999 35.6935 26.6999V23.9902ZM50.1452 33.9257C50.8934 33.9257 51.5 33.3191 51.5 32.5709C51.5 31.8226 50.8934 31.216 50.1452 31.216V33.9257ZM35.6935 31.216C34.9453 31.216 34.3387 31.8226 34.3387 32.5709C34.3387 33.3191 34.9453 33.9257 35.6935 33.9257V31.216ZM26.2097 37.9902C26.2097 37.242 25.6031 36.6354 24.8548 36.6354C24.1066 36.6354 23.5 37.242 23.5 37.9902H26.2097ZM35.6935 51.9902C36.4418 51.9902 37.0484 51.3836 37.0484 50.6354C37.0484 49.8872 36.4418 49.2806 35.6935 49.2806V51.9902ZM23.5 37.9902C23.5 38.7385 24.1066 39.3451 24.8548 39.3451C25.6031 39.3451 26.2097 38.7385 26.2097 37.9902H23.5ZM35.6935 26.6999C36.4418 26.6999 37.0484 26.0933 37.0484 25.3451C37.0484 24.5968 36.4418 23.9902 35.6935 23.9902V26.6999ZM24.8548 36.6354C24.1066 36.6354 23.5 37.242 23.5 37.9902C23.5 38.7385 24.1066 39.3451 24.8548 39.3451V36.6354ZM35.6935 39.3451C36.4418 39.3451 37.0484 38.7385 37.0484 37.9902C37.0484 37.242 36.4418 36.6354 35.6935 36.6354V39.3451ZM37.0484 37.9902C37.0484 37.242 36.4418 36.6354 35.6935 36.6354C34.9453 36.6354 34.3387 37.242 34.3387 37.9902H37.0484ZM34.3387 50.6354C34.3387 51.3836 34.9453 51.9902 35.6935 51.9902C36.4418 51.9902 37.0484 51.3836 37.0484 50.6354H34.3387ZM34.3387 37.9902C34.3387 38.7385 34.9453 39.3451 35.6935 39.3451C36.4418 39.3451 37.0484 38.7385 37.0484 37.9902H34.3387ZM37.0484 32.5709C37.0484 31.8226 36.4418 31.216 35.6935 31.216C34.9453 31.216 34.3387 31.8226 34.3387 32.5709H37.0484ZM37.0484 25.3451C37.0484 24.5968 36.4418 23.9902 35.6935 23.9902C34.9453 23.9902 34.3387 24.5968 34.3387 25.3451H37.0484ZM34.3387 32.5709C34.3387 33.3191 34.9453 33.9257 35.6935 33.9257C36.4418 33.9257 37.0484 33.3191 37.0484 32.5709H34.3387ZM48.7903 32.5709V43.4096H51.5V32.5709H48.7903ZM48.7903 43.4096C48.7903 46.652 46.1618 49.2806 42.9194 49.2806V51.9902C47.6584 51.9902 51.5 48.1486 51.5 43.4096H48.7903ZM42.9194 49.2806H35.6935V51.9902H42.9194V49.2806ZM51.5 32.5709C51.5 27.8319 47.6584 23.9902 42.9194 23.9902V26.6999C46.1618 26.6999 48.7903 29.3284 48.7903 32.5709H51.5ZM42.9194 23.9902H35.6935V26.6999H42.9194V23.9902ZM50.1452 31.216H35.6935V33.9257H50.1452V31.216ZM23.5 37.9902V43.4096H26.2097V37.9902H23.5ZM23.5 43.4096C23.5 48.1486 27.3417 51.9902 32.0806 51.9902V49.2806C28.8382 49.2806 26.2097 46.652 26.2097 43.4096H23.5ZM32.0806 51.9902H35.6935V49.2806H32.0806V51.9902ZM26.2097 37.9902V32.5709H23.5V37.9902H26.2097ZM26.2097 32.5709C26.2097 29.3284 28.8382 26.6999 32.0806 26.6999V23.9902C27.3417 23.9902 23.5 27.8319 23.5 32.5709H26.2097ZM32.0806 26.6999H35.6935V23.9902H32.0806V26.6999ZM24.8548 39.3451H35.6935V36.6354H24.8548V39.3451ZM34.3387 37.9902V50.6354H37.0484V37.9902H34.3387ZM37.0484 37.9902V32.5709H34.3387V37.9902H37.0484ZM34.3387 25.3451V32.5709H37.0484V25.3451H34.3387Z" fill="white"/>
</g>
<defs>
<clipPath id="clip0_148_209">
<rect width="28" height="28" fill="white" transform="translate(23.5 23.9902)"/>
</clipPath>
</defs>
</svg>
