<svg width="76" height="76" viewBox="0 0 76 76" fill="none" xmlns="http://www.w3.org/2000/svg">
<circle cx="38" cy="37.9902" r="37.5" fill="#038E43"/>
<path fill-rule="evenodd" clip-rule="evenodd" d="M29.6897 43.207C27.4684 41.2985 25.8819 39.1171 25.1376 37.9904C25.8819 36.8637 27.4684 34.6823 29.6897 32.7739C31.983 30.8035 34.8147 29.2404 38.0001 29.2404C41.1855 29.2404 44.0173 30.8035 46.3105 32.7739C48.5319 34.6823 50.1184 36.8637 50.8627 37.9904C50.1184 39.1171 48.5319 41.2985 46.3105 43.207C44.0173 45.1774 41.1855 46.7404 38.0001 46.7404C34.8147 46.7404 31.983 45.1774 29.6897 43.207ZM38.0001 26.3237C33.8402 26.3237 30.3543 28.3576 27.789 30.5616C25.2144 32.7736 23.4278 35.2744 22.6349 36.488C22.0358 37.4049 22.0358 38.5759 22.6349 39.4928C23.4278 40.7064 25.2144 43.2071 27.789 45.4193C30.3543 47.6233 33.8402 49.6571 38.0001 49.6571C42.16 49.6571 45.646 47.6233 48.2113 45.4193C50.7859 43.2071 52.5725 40.7064 53.3654 39.4928C53.9644 38.5759 53.9644 37.4049 53.3654 36.488C52.5725 35.2744 50.7859 32.7736 48.2113 30.5616C45.646 28.3576 42.16 26.3237 38.0001 26.3237ZM35.0834 37.9904C35.0834 36.3795 36.3893 35.0737 38.0001 35.0737C39.6109 35.0737 40.9167 36.3795 40.9167 37.9904C40.9167 39.6013 39.6109 40.9071 38.0001 40.9071C36.3893 40.9071 35.0834 39.6013 35.0834 37.9904ZM38.0001 32.1571C34.7785 32.1571 32.1668 34.7687 32.1668 37.9904C32.1668 41.212 34.7785 43.8237 38.0001 43.8237C41.2218 43.8237 43.8334 41.212 43.8334 37.9904C43.8334 34.7687 41.2218 32.1571 38.0001 32.1571Z" fill="white"/>
</svg>
