<svg width="76" height="76" viewBox="0 0 76 76" fill="none" xmlns="http://www.w3.org/2000/svg">
<circle cx="38" cy="37.9902" r="37.5" fill="#038E43"/>
<g clip-path="url(#clip0_148_159)">
<path d="M51.5566 37.0599L55.5 34.1398L52.0913 22.6519L34.5457 23.2142L32.8554 25.839L26.8464 24.3937L20.5 37.496L23.3908 39.9842L21.8645 42.3462C21.3825 43.0923 21.2198 43.9813 21.4064 44.8498C21.5931 45.7182 22.1068 46.4619 22.8528 46.944C23.3971 47.2958 24.0178 47.4775 24.6509 47.4775C24.8176 47.4775 24.985 47.4643 25.1522 47.4388C25.3639 48.1917 25.839 48.8736 26.5459 49.3303C27.1025 49.69 27.7273 49.8618 28.3453 49.8618C28.5123 49.8618 28.6784 49.8477 28.8429 49.823C29.0615 50.605 29.5511 51.2722 30.239 51.7168C30.7956 52.0765 31.4203 52.2482 32.0384 52.2482C33.1303 52.2482 34.2012 51.7119 34.8366 50.7285L35.2901 50.0266L37.9461 51.7874L37.9571 51.7947C38.5015 52.1465 39.1221 52.3282 39.7553 52.3282C39.9897 52.3282 40.2261 52.3033 40.4607 52.2529C41.3292 52.0662 42.0729 51.5525 42.5549 50.8066C42.8942 50.2815 43.066 49.6958 43.0844 49.1123C43.2545 49.1023 43.4251 49.0796 43.595 49.0431C44.4634 48.8564 45.2071 48.3427 45.6892 47.5967C46.0218 47.0821 46.2022 46.4993 46.2208 45.9023C46.3903 45.8923 46.5601 45.8696 46.7292 45.8333C47.5977 45.6466 48.3413 45.133 48.8234 44.3869C49.163 43.8614 49.3348 43.2749 49.3528 42.6909C50.3764 42.6315 51.3597 42.1024 51.9575 41.1771C52.4396 40.431 52.6022 39.542 52.4157 38.6735C52.2829 38.0558 51.9848 37.5013 51.5566 37.0599ZM35.8001 25.4288L50.4254 24.9601L52.8904 33.2678L49.612 35.6954L37.0752 27.5326L33.5166 32.9338L33.5111 32.9422C33.1902 33.4385 32.5256 33.5813 32.0294 33.2608C31.5331 32.9401 31.3902 32.2754 31.7118 31.7776L35.8001 25.4288ZM25.5576 44.7326C25.2368 45.229 24.572 45.3718 24.0759 45.0512C23.8355 44.8958 23.67 44.6561 23.6098 44.3763C23.5497 44.0964 23.6021 43.8099 23.7575 43.5695L26.0114 40.0813C26.2163 39.7643 26.5612 39.5916 26.9132 39.5916C27.1123 39.5916 27.3138 39.647 27.4932 39.7628C27.7336 39.9182 27.8991 40.1578 27.9592 40.4377C28.0194 40.7175 27.967 41.0041 27.8117 41.2445L25.5576 44.7326ZM29.2508 47.119C28.9299 47.6153 28.2652 47.758 27.769 47.4375C27.2727 47.1168 27.1298 46.4521 27.4506 45.9558L29.7045 42.4676C29.9094 42.1506 30.2543 41.9779 30.6063 41.9779C30.8054 41.9779 31.0069 42.0332 31.1863 42.1492C31.6826 42.4699 31.8254 43.1346 31.5048 43.6309L29.2508 47.119ZM35.1977 46.0172L32.9437 49.5053C32.6231 50.0018 31.9583 50.1444 31.4621 49.8238C31.2217 49.6684 31.0561 49.4288 30.996 49.1489C30.9359 48.869 30.9882 48.5826 31.1436 48.3421L33.3976 44.8539C33.5529 44.6135 33.7925 44.448 34.0724 44.3878C34.1481 44.3716 34.2242 44.3635 34.2996 44.3635C34.5037 44.3635 34.7037 44.4221 34.8791 44.5355C35.3755 44.8562 35.5183 45.5209 35.1977 46.0172ZM50.0646 39.9537C49.9092 40.1942 49.6696 40.3597 49.3898 40.4198C49.1099 40.48 48.8233 40.4275 48.583 40.2722L47.8352 39.7891L47.8351 39.789L44.3469 37.5351L43.1238 39.4279L43.8717 39.9112L46.6121 41.682C46.8525 41.8374 47.018 42.077 47.0781 42.3569C47.1383 42.6367 47.0858 42.9233 46.9305 43.1637C46.7752 43.4041 46.5355 43.5697 46.2557 43.6298C45.9758 43.6899 45.6893 43.6376 45.4488 43.4823L41.9607 41.2283L40.7376 43.1212L43.4779 44.8918C43.9742 45.2125 44.1171 45.8772 43.7964 46.3735C43.641 46.6139 43.4013 46.7795 43.1216 46.8397C42.8416 46.8997 42.5552 46.8474 42.3148 46.6921L39.3372 44.7681L38.1141 46.661L40.3438 48.1017C40.8401 48.4225 40.983 49.0871 40.6623 49.5835C40.5069 49.8239 40.2673 49.9895 39.9874 50.0496C39.7093 50.1094 39.4247 50.0579 39.1852 49.9049L36.5137 48.1338L37.0908 47.2404C38.0859 45.7004 37.6426 43.6378 36.1025 42.6427C35.3951 42.1856 34.5775 42.0328 33.8037 42.1496C33.5922 41.3961 33.117 40.7135 32.4096 40.2564C31.7026 39.7996 30.8857 39.6467 30.1124 39.763C29.8937 38.9813 29.4042 38.3144 28.7165 37.87C27.4436 37.0474 25.8141 37.2086 24.7249 38.1588L23.2841 36.9187L28.084 27.0095L31.5633 27.8463L29.8183 30.556C28.8232 32.096 29.2665 34.1586 30.8065 35.1537C32.345 36.1479 34.4051 35.7062 35.4015 34.1699L37.7242 30.6444L49.7466 38.4721C49.987 38.6275 50.1525 38.8671 50.2127 39.147C50.2724 39.4268 50.22 39.7133 50.0646 39.9537Z" fill="white"/>
</g>
<defs>
<clipPath id="clip0_148_159">
<rect width="35" height="35" fill="white" transform="translate(20.5 19.9902)"/>
</clipPath>
</defs>
</svg>
