<svg width="59" height="60" viewBox="0 0 59 60" fill="none" xmlns="http://www.w3.org/2000/svg">
<path d="M15.75 30H15.7806M29.5 30H29.5306M43.25 30H43.2806M29.5 57.5C44.6879 57.5 57 45.1879 57 30C57 14.8122 44.6879 2.5 29.5 2.5C14.3122 2.5 2 14.8122 2 30C2 33.6578 2.71421 37.1491 4.01074 40.3415C4.25888 40.9526 4.38297 41.2582 4.43833 41.5051C4.49248 41.7465 4.51228 41.9252 4.51231 42.173C4.51234 42.426 4.46638 42.7016 4.3745 43.2532L2.56262 54.1242C2.37287 55.2627 2.27799 55.832 2.45454 56.2436C2.60906 56.6038 2.89613 56.891 3.25638 57.0453C3.668 57.2219 4.23722 57.1272 5.37566 56.9375L16.247 55.1255C16.7983 55.0336 17.074 54.9877 17.3271 54.9877C17.5746 54.9877 17.7534 55.0076 17.995 55.0617C18.2419 55.117 18.5474 55.241 19.1584 55.4891C22.3509 56.7859 25.8422 57.5 29.5 57.5ZM17.2778 30C17.2778 30.8436 16.5938 31.5278 15.75 31.5278C14.9062 31.5278 14.2222 30.8436 14.2222 30C14.2222 29.1564 14.9062 28.4722 15.75 28.4722C16.5938 28.4722 17.2778 29.1564 17.2778 30ZM31.0278 30C31.0278 30.8436 30.3436 31.5278 29.5 31.5278C28.6564 31.5278 27.9722 30.8436 27.9722 30C27.9722 29.1564 28.6564 28.4722 29.5 28.4722C30.3436 28.4722 31.0278 29.1564 31.0278 30ZM44.7778 30C44.7778 30.8436 44.0936 31.5278 43.25 31.5278C42.4064 31.5278 41.7222 30.8436 41.7222 30C41.7222 29.1564 42.4064 28.4722 43.25 28.4722C44.0936 28.4722 44.7778 29.1564 44.7778 30Z" stroke="white" stroke-width="4" stroke-linecap="round" stroke-linejoin="round"/>
</svg>
