<svg width="76" height="76" viewBox="0 0 76 76" fill="none" xmlns="http://www.w3.org/2000/svg">
<circle cx="38" cy="37.9902" r="37.5" fill="#038E43"/>
<g clip-path="url(#clip0_148_169)">
<path fill-rule="evenodd" clip-rule="evenodd" d="M47.4231 52.2979C45.1925 52.2979 43.3847 50.49 43.3847 48.2595C43.3847 46.0289 45.1925 44.221 47.4231 44.221C49.6537 44.221 51.4616 46.0289 51.4616 48.2595C51.4616 50.49 49.6537 52.2979 47.4231 52.2979ZM28.577 41.5287C26.3464 41.5287 24.5385 39.7208 24.5385 37.4902C24.5385 35.261 26.3464 33.4518 28.577 33.4518C30.8075 33.4518 32.6154 35.261 32.6154 37.4902C32.6154 39.7208 30.8075 41.5287 28.577 41.5287ZM47.4231 22.6825C49.6537 22.6825 51.4616 24.4904 51.4616 26.721C51.4616 28.9516 49.6537 30.7595 47.4231 30.7595C45.1925 30.7595 43.3847 28.9516 43.3847 26.721C43.3847 24.4904 45.1925 22.6825 47.4231 22.6825ZM47.4231 41.5287C45.0404 41.5287 42.9606 42.7739 41.7639 44.641L34.5552 40.5218C35.021 39.6064 35.3077 38.586 35.3077 37.4902C35.3077 36.8131 35.1772 36.1723 34.9914 35.5558L42.4908 31.271C43.7198 32.6037 45.4672 33.4518 47.4231 33.4518C51.1412 33.4518 54.1539 30.4391 54.1539 26.721C54.1539 23.0029 51.1412 19.9902 47.4231 19.9902C43.705 19.9902 40.6923 23.0029 40.6923 26.721C40.6923 27.3981 40.8229 28.0389 41.0087 28.6568L33.5093 32.9402C32.2802 31.6089 30.5329 30.7595 28.577 30.7595C24.8589 30.7595 21.8462 33.7722 21.8462 37.4902C21.8462 41.2083 24.8589 44.221 28.577 44.221C30.1116 44.221 31.5102 43.6879 32.6423 42.8237L32.6154 42.8748L40.7664 47.5326C40.7394 47.7749 40.6923 48.0091 40.6923 48.2595C40.6923 51.9775 43.705 54.9902 47.4231 54.9902C51.1412 54.9902 54.1539 51.9775 54.1539 48.2595C54.1539 44.5414 51.1412 41.5287 47.4231 41.5287Z" fill="white"/>
</g>
<defs>
<clipPath id="clip0_148_169">
<rect width="35" height="35" fill="white" transform="translate(20.5 19.9902)"/>
</clipPath>
</defs>
</svg>
