<svg width="76" height="76" viewBox="0 0 76 76" fill="none" xmlns="http://www.w3.org/2000/svg">
<circle cx="38" cy="37.9902" r="37.5" fill="#038E43"/>
<path d="M53.3125 49.1321C53.3125 50.2383 52.8731 51.2992 52.0909 52.0814C51.3087 52.8635 50.2479 53.303 49.1417 53.303H26.8584C26.3107 53.303 25.7683 53.1951 25.2623 52.9855C24.7562 52.7759 24.2964 52.4687 23.9091 52.0814C23.127 51.2992 22.6875 50.2383 22.6875 49.1321C22.6856 48.7658 22.7563 48.4027 22.8956 48.0639C23.0349 47.7251 23.24 47.4173 23.4991 47.1582C23.7581 46.8992 24.0659 46.6941 24.4047 46.5548C24.7436 46.4155 25.1066 46.3448 25.473 46.3467H33.8292L35.2146 47.7321H40.7855L42.1709 46.3467H50.5271C50.8934 46.3448 51.2565 46.4155 51.5953 46.5548C51.9342 46.6941 52.242 46.8992 52.501 47.1582C52.7601 47.4173 52.9652 47.7251 53.1044 48.0639C53.2437 48.4027 53.3145 48.7658 53.3125 49.1321Z" stroke="white" stroke-width="2" stroke-miterlimit="10"/>
<path d="M43.4544 28.2485H47.7419C48.4795 28.2524 49.1857 28.5471 49.7073 29.0686C50.2288 29.5901 50.5235 30.2964 50.5273 31.034V46.3465H42.1711L40.7856 47.7319H35.2148L33.8294 46.3465H25.4731V31.034C25.477 30.2964 25.7717 29.5901 26.2932 29.0686C26.8147 28.5471 27.521 28.2524 28.2586 28.2485H32.5461" stroke="white" stroke-width="2" stroke-miterlimit="10"/>
<path d="M43.5709 27.8986C43.5709 31.384 38 36.6486 38 36.6486C38 36.6486 32.4292 31.4277 32.4292 27.8986C32.4518 27.1899 32.6139 26.4926 32.9062 25.8465C33.1984 25.2005 33.6152 24.6184 34.1325 24.1335C34.6499 23.6487 35.2578 23.2705 35.9214 23.0207C36.585 22.7709 37.2913 22.6544 38 22.6777C38.7087 22.6544 39.4151 22.7709 40.0787 23.0207C40.7423 23.2705 41.3501 23.6487 41.8675 24.1335C42.3849 24.6184 42.8016 25.2005 43.0939 25.8465C43.3862 26.4926 43.5483 27.1899 43.5709 27.8986Z" stroke="white" stroke-width="2" stroke-miterlimit="10"/>
<path d="M38.0002 29.6341C38.7653 29.6341 39.3856 29.0138 39.3856 28.2487C39.3856 27.4836 38.7653 26.8633 38.0002 26.8633C37.235 26.8633 36.6147 27.4836 36.6147 28.2487C36.6147 29.0138 37.235 29.6341 38.0002 29.6341Z" fill="white"/>
</svg>
